<svg width="147" height="59" viewBox="0 0 147 59" fill="none" xmlns="http://www.w3.org/2000/svg">
<rect x="0.5" y="0.5" width="146" height="58" rx="8.5" stroke="#81FE88"/>
<path d="M32.9173 21.622H38.8353C40.4926 21.622 41.798 22.04 42.7513 22.876C43.7193 23.6973 44.2033 24.8707 44.2033 26.396C44.2033 27.9507 43.7266 29.1313 42.7733 29.938C41.82 30.73 40.5073 31.126 38.8353 31.126H35.1613V37H32.9173V21.622ZM38.5933 29.256C39.62 29.256 40.434 29.0433 41.0353 28.618C41.6366 28.1927 41.9373 27.452 41.9373 26.396C41.9373 25.34 41.6366 24.5993 41.0353 24.174C40.434 23.734 39.62 23.514 38.5933 23.514H35.1613V29.256H38.5933ZM49.6017 37.33C48.1791 37.33 47.1011 36.9487 46.3677 36.186C45.6491 35.4233 45.2897 34.404 45.2897 33.128V26.44H47.5117V33.04C47.5117 34.7267 48.3551 35.57 50.0417 35.57C51.5231 35.57 52.6817 34.9027 53.5177 33.568V26.44H55.7397V37H53.5837V35.504C53.0851 36.1347 52.4911 36.5967 51.8017 36.89C51.1271 37.1833 50.3937 37.33 49.6017 37.33ZM65.1471 37.33C64.1938 37.33 63.3651 37.1833 62.6611 36.89C61.9718 36.582 61.3338 36.1053 60.7471 35.46V37H58.5911V20.742H60.8131V27.848C61.2971 27.276 61.9205 26.8433 62.6831 26.55C63.4458 26.2567 64.2671 26.11 65.1471 26.11C66.2031 26.11 67.1491 26.352 67.9851 26.836C68.8358 27.3053 69.4958 27.9653 69.9651 28.816C70.4491 29.6667 70.6911 30.642 70.6911 31.742C70.6911 32.8567 70.4491 33.8393 69.9651 34.69C69.4958 35.526 68.8358 36.1787 67.9851 36.648C67.1491 37.1027 66.2031 37.33 65.1471 37.33ZM64.6411 35.57C65.3598 35.57 66.0051 35.416 66.5771 35.108C67.1638 34.7853 67.6185 34.3307 67.9411 33.744C68.2785 33.1573 68.4471 32.49 68.4471 31.742C68.4471 30.994 68.2785 30.3267 67.9411 29.74C67.6185 29.1533 67.1638 28.6987 66.5771 28.376C66.0051 28.0533 65.3598 27.892 64.6411 27.892C63.7465 27.892 62.9471 28.134 62.2431 28.618C61.5391 29.102 61.0625 29.7473 60.8131 30.554V32.93C61.0918 33.7367 61.5685 34.382 62.2431 34.866C62.9325 35.3353 63.7318 35.57 64.6411 35.57ZM73.1146 20.742H75.3366V37H73.1146V20.742ZM79.5044 24.372C79.1377 24.372 78.8297 24.2473 78.5804 23.998C78.331 23.7487 78.2064 23.4407 78.2064 23.074C78.2064 22.7073 78.331 22.3993 78.5804 22.15C78.8297 21.9007 79.1377 21.776 79.5044 21.776C79.8857 21.776 80.201 21.9007 80.4504 22.15C80.7144 22.3993 80.8464 22.7073 80.8464 23.074C80.8464 23.4407 80.7144 23.7487 80.4504 23.998C80.201 24.2473 79.8857 24.372 79.5044 24.372ZM78.3824 26.44H80.6484V37H78.3824V26.44ZM89.2724 37.33C88.099 37.33 87.0577 37.11 86.1484 36.67C85.239 36.23 84.5277 35.592 84.0144 34.756C83.5157 33.9053 83.2664 32.9007 83.2664 31.742C83.2664 30.5833 83.5157 29.586 84.0144 28.75C84.5277 27.8993 85.239 27.2467 86.1484 26.792C87.0724 26.3373 88.1284 26.11 89.3164 26.11C90.9297 26.11 92.2204 26.4253 93.1884 27.056V28.882C92.235 28.222 91.0177 27.892 89.5364 27.892C88.3337 27.892 87.3584 28.222 86.6104 28.882C85.877 29.5273 85.5104 30.4807 85.5104 31.742C85.5104 33.0033 85.877 33.9567 86.6104 34.602C87.3437 35.2473 88.3044 35.57 89.4924 35.57C90.9737 35.57 92.2497 35.218 93.3204 34.514V36.318C92.807 36.67 92.2204 36.9267 91.5604 37.088C90.915 37.2493 90.1524 37.33 89.2724 37.33ZM99.4142 37.33C98.1382 37.33 97.1115 37.0073 96.3342 36.362C95.5715 35.702 95.1902 34.8147 95.1902 33.7C95.1902 32.5267 95.5569 31.6247 96.2902 30.994C97.0382 30.3487 98.0942 30.026 99.4582 30.026C100.91 30.026 102.142 30.3193 103.154 30.906V30.356C103.154 29.52 102.898 28.904 102.384 28.508C101.886 28.0973 101.094 27.892 100.008 27.892C99.3629 27.892 98.7322 27.958 98.1162 28.09C97.5149 28.2073 96.9722 28.376 96.4882 28.596V26.792C96.9282 26.5867 97.5002 26.4253 98.2042 26.308C98.9082 26.176 99.5902 26.11 100.25 26.11C101.996 26.11 103.286 26.4987 104.122 27.276C104.973 28.0387 105.398 29.102 105.398 30.466V37H103.308V35.812C102.854 36.3107 102.311 36.692 101.68 36.956C101.064 37.2053 100.309 37.33 99.4142 37.33ZM99.9642 35.636C100.668 35.636 101.306 35.4967 101.878 35.218C102.45 34.9393 102.876 34.5507 103.154 34.052V32.622C102.201 32.006 101.138 31.698 99.9642 31.698C99.1135 31.698 98.4755 31.8667 98.0502 32.204C97.6395 32.5267 97.4342 33.0253 97.4342 33.7C97.4342 34.9907 98.2775 35.636 99.9642 35.636ZM108.156 26.44H110.312V28.332C110.752 27.6867 111.368 27.21 112.16 26.902C112.966 26.594 113.898 26.44 114.954 26.44V28.178C113.824 28.178 112.856 28.3613 112.05 28.728C111.243 29.0947 110.686 29.674 110.378 30.466V37H108.156V26.44Z" fill="#81FE88"/>
</svg>
